<mxfile host="app.diagrams.net" agent="Mozilla/5.0 (Windows NT 10.0; Win64; x64) AppleWebKit/537.36 (KHTML, like Gecko) Chrome/127.0.0.0 Safari/537.36" version="24.7.6">
  <diagram name="PÃ¡gina-1" id="sIgLrxQ7H6NQf6IWDaPI">
    <mxGraphModel dx="5027" dy="4606" grid="1" gridSize="10" guides="1" tooltips="1" connect="1" arrows="1" fold="1" page="1" pageScale="1" pageWidth="827" pageHeight="1169" math="0" shadow="0">
      <root>
        <mxCell id="0" />
        <mxCell id="1" parent="0" />
        <mxCell id="qB2LF_t2OZ2bHveKpeMm-127" value="" style="pointerEvents=0;fontStyle=0;html=1;whiteSpace=wrap;container=1;collapsible=0;childLayout=stackLayout;resizeParent=1;dropTarget=0;fontSize=13;spacing=0;rounded=1;absoluteArcSize=1;arcSize=9;strokeWidth=NaN;fillColor=#f5f5f5;fontColor=#333333;strokeColor=#666666;" parent="1" vertex="1">
          <mxGeometry x="-37" y="-600" width="240" height="223.7500000000001" as="geometry" />
        </mxCell>
        <mxCell id="qB2LF_t2OZ2bHveKpeMm-128" value="ReprodutorMusical" style="swimlane;html=1;whiteSpace=wrap;connectable=0;fontStyle=0;startSize=30;dropTarget=0;rounded=0;spacing=0;strokeColor=#666666;fillColor=#f5f5f5;strokeWidth=NaN;container=1;pointerEvents=0;collapsible=0;recursiveResize=0;fontSize=16.7;fontColor=#333333;" parent="qB2LF_t2OZ2bHveKpeMm-127" vertex="1">
          <mxGeometry width="240" height="223.7500000000001" as="geometry" />
        </mxCell>
        <mxCell id="qB2LF_t2OZ2bHveKpeMm-129" value="" style="html=1;overflow=block;blockSpacing=1;whiteSpace=wrap;container=1;pointerEvents=0;collapsible=0;recursiveResize=0;fontSize=13;spacing=0;strokeColor=#unset;fillOpacity=0;rounded=1;absoluteArcSize=1;arcSize=9;fillColor=#000000;strokeWidth=NaN;lucidId=XFU1gyjMf~1g;" parent="1" vertex="1">
          <mxGeometry x="-37" y="-375" width="240" height="105" as="geometry" />
        </mxCell>
        <mxCell id="qB2LF_t2OZ2bHveKpeMm-130" value="" style="pointerEvents=0;fontStyle=0;html=1;whiteSpace=wrap;container=1;collapsible=0;childLayout=stackLayout;resizeParent=1;dropTarget=0;fontSize=13;spacing=0;rounded=1;absoluteArcSize=1;arcSize=9;strokeWidth=NaN;fillColor=#f5f5f5;fontColor=#333333;strokeColor=#666666;" parent="1" vertex="1">
          <mxGeometry x="323" y="-600" width="300" height="223.7500000000001" as="geometry" />
        </mxCell>
        <mxCell id="qB2LF_t2OZ2bHveKpeMm-131" value="AparelhoTelefonico" style="swimlane;html=1;whiteSpace=wrap;connectable=0;fontStyle=0;startSize=30;dropTarget=0;rounded=0;spacing=0;strokeColor=#666666;fillColor=#f5f5f5;strokeWidth=NaN;container=1;pointerEvents=0;collapsible=0;recursiveResize=0;fontSize=16.7;fontColor=#333333;" parent="qB2LF_t2OZ2bHveKpeMm-130" vertex="1">
          <mxGeometry width="300" height="223.7500000000001" as="geometry" />
        </mxCell>
        <mxCell id="qB2LF_t2OZ2bHveKpeMm-132" value="" style="html=1;overflow=block;blockSpacing=1;whiteSpace=wrap;container=1;pointerEvents=0;collapsible=0;recursiveResize=0;fontSize=13;spacing=0;strokeColor=#unset;fillOpacity=0;rounded=1;absoluteArcSize=1;arcSize=9;fillColor=#000000;strokeWidth=NaN;lucidId=MIU1.uX-G0Q0;" parent="1" vertex="1">
          <mxGeometry x="323" y="-375" width="300" height="105" as="geometry" />
        </mxCell>
        <mxCell id="qB2LF_t2OZ2bHveKpeMm-133" value="" style="pointerEvents=0;fontStyle=0;html=1;whiteSpace=wrap;container=1;collapsible=0;childLayout=stackLayout;resizeParent=1;dropTarget=0;fontSize=13;spacing=0;rounded=1;absoluteArcSize=1;arcSize=9;strokeWidth=NaN;fillColor=#f5f5f5;fontColor=#333333;strokeColor=#666666;" parent="1" vertex="1">
          <mxGeometry x="743" y="-600" width="450" height="340" as="geometry" />
        </mxCell>
        <mxCell id="qB2LF_t2OZ2bHveKpeMm-134" value="NavegadorInternet" style="swimlane;html=1;whiteSpace=wrap;connectable=0;fontStyle=0;startSize=30;dropTarget=0;rounded=0;spacing=0;strokeColor=#666666;fillColor=#f5f5f5;strokeWidth=NaN;container=1;pointerEvents=0;collapsible=0;recursiveResize=0;fontSize=16.7;fontColor=#333333;" parent="qB2LF_t2OZ2bHveKpeMm-133" vertex="1">
          <mxGeometry width="450" height="340" as="geometry" />
        </mxCell>
        <mxCell id="qB2LF_t2OZ2bHveKpeMm-135" value="" style="html=1;overflow=block;blockSpacing=1;whiteSpace=wrap;container=1;pointerEvents=0;collapsible=0;recursiveResize=0;fontSize=13;spacing=0;strokeColor=#unset;fillOpacity=0;rounded=1;absoluteArcSize=1;arcSize=9;fillColor=#000000;strokeWidth=NaN;lucidId=nNU1vQuFCR1_;" parent="1" vertex="1">
          <mxGeometry x="743" y="-375" width="442" height="150" as="geometry" />
        </mxCell>
        <mxCell id="qB2LF_t2OZ2bHveKpeMm-136" value="" style="pointerEvents=0;fontStyle=0;html=1;whiteSpace=wrap;container=1;collapsible=0;childLayout=stackLayout;resizeParent=1;dropTarget=0;fontSize=13;spacing=0;rounded=1;absoluteArcSize=1;arcSize=9;strokeWidth=NaN;fillColor=#f5f5f5;fontColor=#333333;strokeColor=#666666;" parent="1" vertex="1">
          <mxGeometry x="-50.28" y="-1063" width="240" height="148.7500000000001" as="geometry" />
        </mxCell>
        <mxCell id="qB2LF_t2OZ2bHveKpeMm-137" value="&lt;i&gt;&amp;lt;&amp;lt;Musica&amp;gt;&amp;gt;&lt;/i&gt;" style="swimlane;html=1;whiteSpace=wrap;connectable=0;fontStyle=0;startSize=30;dropTarget=0;rounded=0;spacing=0;strokeColor=#666666;fillColor=#f5f5f5;strokeWidth=NaN;container=1;pointerEvents=0;collapsible=0;recursiveResize=0;fontSize=16.7;fontColor=#333333;" parent="qB2LF_t2OZ2bHveKpeMm-136" vertex="1">
          <mxGeometry width="240" height="148.7500000000001" as="geometry" />
        </mxCell>
        <mxCell id="qB2LF_t2OZ2bHveKpeMm-138" value="" style="html=1;overflow=block;blockSpacing=1;whiteSpace=wrap;container=1;pointerEvents=0;collapsible=0;recursiveResize=0;fontSize=13;spacing=0;strokeColor=#unset;fillOpacity=0;rounded=1;absoluteArcSize=1;arcSize=9;fillColor=#000000;strokeWidth=NaN;lucidId=N1U1qpOQGeQc;" parent="1" vertex="1">
          <mxGeometry x="-50.28" y="-913" width="240" height="45" as="geometry" />
        </mxCell>
        <mxCell id="qB2LF_t2OZ2bHveKpeMm-170" value="&lt;div style=&quot;display: flex; justify-content: flex-start; text-align: left; align-items: baseline; font-size: 0; line-height: 1.25;margin-top: -2px;&quot;&gt;&lt;span&gt;&lt;span style=&quot;font-size:16.7px;color:#3a414a;&quot;&gt;+getStreamDados()&#xa;&lt;/span&gt;&lt;/span&gt;&lt;/div&gt;&lt;div style=&quot;display: flex; justify-content: flex-start; text-align: left; align-items: baseline; font-size: 0; line-height: 1.25;margin-top: -2px;&quot;&gt;&lt;span&gt;&lt;/span&gt;&lt;/div&gt;" style="html=1;overflow=block;blockSpacing=1;whiteSpace=wrap;fontSize=13;spacing=0;verticalAlign=top;strokeColor=#282c33;strokeOpacity=100;fillOpacity=100;rounded=1;absoluteArcSize=1;arcSize=9;fillColor=#ffffff;strokeWidth=1.5;lucidId=N1U10OE2QDr~;" parent="qB2LF_t2OZ2bHveKpeMm-138" vertex="1">
          <mxGeometry x="1" y="-1.25" width="239" height="41.25" as="geometry" />
        </mxCell>
        <mxCell id="qB2LF_t2OZ2bHveKpeMm-139" value="" style="pointerEvents=0;fontStyle=0;html=1;whiteSpace=wrap;container=1;collapsible=0;childLayout=stackLayout;resizeParent=1;dropTarget=0;fontSize=13;spacing=0;rounded=1;absoluteArcSize=1;arcSize=9;strokeWidth=NaN;" parent="1" vertex="1">
          <mxGeometry x="-459.28" y="-1063" width="240" height="200" as="geometry" />
        </mxCell>
        <mxCell id="qB2LF_t2OZ2bHveKpeMm-140" value="MusicaInternet" style="swimlane;html=1;whiteSpace=wrap;connectable=0;fontStyle=0;startSize=30;dropTarget=0;rounded=0;spacing=0;strokeColor=#666666;fillColor=#f5f5f5;strokeWidth=NaN;container=1;pointerEvents=0;collapsible=0;recursiveResize=0;fontSize=16.7;fontColor=#333333;" parent="qB2LF_t2OZ2bHveKpeMm-139" vertex="1">
          <mxGeometry width="240" height="200" as="geometry" />
        </mxCell>
        <mxCell id="qB2LF_t2OZ2bHveKpeMm-141" value="" style="html=1;overflow=block;blockSpacing=1;whiteSpace=wrap;container=1;pointerEvents=0;collapsible=0;recursiveResize=0;fontSize=13;spacing=0;strokeColor=#unset;fillOpacity=0;rounded=1;absoluteArcSize=1;arcSize=9;fillColor=#000000;strokeWidth=NaN;lucidId=k4U1DUjc8r5c;" parent="1" vertex="1">
          <mxGeometry x="-459.28" y="-913" width="240" height="45" as="geometry" />
        </mxCell>
        <mxCell id="qB2LF_t2OZ2bHveKpeMm-142" value="" style="pointerEvents=0;fontStyle=0;html=1;whiteSpace=wrap;container=1;collapsible=0;childLayout=stackLayout;resizeParent=1;dropTarget=0;fontSize=13;spacing=0;rounded=1;absoluteArcSize=1;arcSize=9;strokeWidth=NaN;fillColor=#f5f5f5;fontColor=#333333;strokeColor=#666666;" parent="1" vertex="1">
          <mxGeometry x="-50.28" y="-1318" width="240" height="148.7500000000001" as="geometry" />
        </mxCell>
        <mxCell id="qB2LF_t2OZ2bHveKpeMm-143" value="MusicaArquivo" style="swimlane;html=1;whiteSpace=wrap;connectable=0;fontStyle=0;startSize=30;dropTarget=0;rounded=0;spacing=0;strokeColor=#666666;fillColor=#f5f5f5;strokeWidth=NaN;container=1;pointerEvents=0;collapsible=0;recursiveResize=0;fontSize=16.7;fontColor=#333333;" parent="qB2LF_t2OZ2bHveKpeMm-142" vertex="1">
          <mxGeometry width="240" height="148.7500000000001" as="geometry" />
        </mxCell>
        <mxCell id="qB2LF_t2OZ2bHveKpeMm-144" value="" style="html=1;overflow=block;blockSpacing=1;whiteSpace=wrap;container=1;pointerEvents=0;collapsible=0;recursiveResize=0;fontSize=13;spacing=0;strokeColor=#unset;fillOpacity=0;rounded=1;absoluteArcSize=1;arcSize=9;fillColor=#000000;strokeWidth=NaN;lucidId=r6U1LC5yTZ9O;" parent="1" vertex="1">
          <mxGeometry x="-50.28" y="-1168" width="240" height="45" as="geometry" />
        </mxCell>
        <mxCell id="qB2LF_t2OZ2bHveKpeMm-147" value="" style="html=1;overflow=block;blockSpacing=1;whiteSpace=wrap;container=1;pointerEvents=0;collapsible=0;recursiveResize=0;fontSize=13;spacing=0;strokeColor=#unset;fillOpacity=0;rounded=1;absoluteArcSize=1;arcSize=9;fillColor=#000000;strokeWidth=NaN;lucidId=vbV1ToogUF~~;" parent="1" vertex="1">
          <mxGeometry x="1425" y="-795" width="300" height="135" as="geometry" />
        </mxCell>
        <mxCell id="qB2LF_t2OZ2bHveKpeMm-148" value="" style="fillColor=none;strokeColor=none;pointerEvents=0;fontStyle=0;html=1;whiteSpace=wrap;container=1;collapsible=0;childLayout=stackLayout;resizeParent=1;dropTarget=0;fontSize=13;spacing=0;rounded=1;absoluteArcSize=1;arcSize=9;strokeWidth=NaN;" parent="1" vertex="1">
          <mxGeometry x="323" y="-970" width="300" height="275" as="geometry" />
        </mxCell>
        <mxCell id="qB2LF_t2OZ2bHveKpeMm-149" value="Chamada" style="swimlane;html=1;whiteSpace=wrap;connectable=0;fontStyle=0;startSize=30;dropTarget=0;rounded=0;spacing=0;strokeWidth=NaN;container=1;pointerEvents=0;collapsible=0;recursiveResize=0;fontSize=16.7;" parent="qB2LF_t2OZ2bHveKpeMm-148" vertex="1">
          <mxGeometry width="300" height="275" as="geometry" />
        </mxCell>
        <mxCell id="qB2LF_t2OZ2bHveKpeMm-150" value="" style="html=1;overflow=block;blockSpacing=1;whiteSpace=wrap;container=1;pointerEvents=0;collapsible=0;recursiveResize=0;fontSize=13;spacing=0;strokeColor=#unset;fillOpacity=0;rounded=1;absoluteArcSize=1;arcSize=9;fillColor=#000000;strokeWidth=NaN;lucidId=ifV10eU-QYkU;" parent="1" vertex="1">
          <mxGeometry x="306" y="-852" width="300" height="105" as="geometry" />
        </mxCell>
        <mxCell id="qB2LF_t2OZ2bHveKpeMm-151" value="" style="pointerEvents=0;fontStyle=0;html=1;whiteSpace=wrap;container=1;collapsible=0;childLayout=stackLayout;resizeParent=1;dropTarget=0;fontSize=13;spacing=0;rounded=1;absoluteArcSize=1;arcSize=9;strokeWidth=NaN;fillColor=#f5f5f5;fontColor=#333333;strokeColor=#666666;" parent="1" vertex="1">
          <mxGeometry x="323" y="-1335" width="300" height="178.7500000000001" as="geometry" />
        </mxCell>
        <mxCell id="qB2LF_t2OZ2bHveKpeMm-152" value="Contato" style="swimlane;html=1;whiteSpace=wrap;connectable=0;fontStyle=0;startSize=30;dropTarget=0;rounded=0;spacing=0;strokeColor=#666666;fillColor=#f5f5f5;strokeWidth=NaN;container=1;pointerEvents=0;collapsible=0;recursiveResize=0;fontSize=16.7;fontColor=#333333;" parent="qB2LF_t2OZ2bHveKpeMm-151" vertex="1">
          <mxGeometry width="300" height="178.7500000000001" as="geometry" />
        </mxCell>
        <mxCell id="qB2LF_t2OZ2bHveKpeMm-153" value="" style="html=1;overflow=block;blockSpacing=1;whiteSpace=wrap;container=1;pointerEvents=0;collapsible=0;recursiveResize=0;fontSize=13;spacing=0;strokeColor=#unset;fillOpacity=0;rounded=1;absoluteArcSize=1;arcSize=9;fillColor=#000000;strokeWidth=NaN;lucidId=OgV1jVfrSJpw;" parent="1" vertex="1">
          <mxGeometry x="323" y="-1155" width="300" height="135" as="geometry" />
        </mxCell>
        <mxCell id="qB2LF_t2OZ2bHveKpeMm-182" value="&lt;div style=&quot;display: flex; justify-content: flex-start; text-align: left; align-items: baseline; font-size: 0; line-height: 1.25;margin-top: -2px;&quot;&gt;&lt;span&gt;&lt;span style=&quot;font-size:16.7px;color:#3a414a;&quot;&gt;+exibirDetalhes()&#xa;&lt;/span&gt;&lt;/span&gt;&lt;/div&gt;&lt;div style=&quot;display: flex; justify-content: flex-start; text-align: left; align-items: baseline; font-size: 0; line-height: 1.25;margin-top: -2px;&quot;&gt;&lt;span&gt;&lt;span style=&quot;font-size:16.7px;color:#3a414a;&quot;&gt;+calcularTempoPermanencia()&#xa;&lt;/span&gt;&lt;/span&gt;&lt;/div&gt;&lt;div style=&quot;display: flex; justify-content: flex-start; text-align: left; align-items: baseline; font-size: 0; line-height: 1.25;margin-top: -2px;&quot;&gt;&lt;span&gt;&lt;span style=&quot;font-size:16.7px;color:#3a414a;&quot;&gt;+gerarMiniatura()&#xa;&lt;/span&gt;&lt;/span&gt;&lt;/div&gt;&lt;div style=&quot;display: flex; justify-content: flex-start; text-align: left; align-items: baseline; font-size: 0; line-height: 1.25;margin-top: -2px;&quot;&gt;&lt;span&gt;&lt;span style=&quot;font-size:16.7px;color:#3a414a;&quot;&gt;+associarTag(tag: String)&#xa;&lt;/span&gt;&lt;/span&gt;&lt;/div&gt;&lt;div style=&quot;display: flex; justify-content: flex-start; text-align: left; align-items: baseline; font-size: 0; line-height: 1.25;margin-top: -2px;&quot;&gt;&lt;span&gt;&lt;span style=&quot;font-size:16.7px;color:#3a414a;&quot;&gt;+removerTag(tag: String)&lt;/span&gt;&lt;/span&gt;&lt;/div&gt;" style="html=1;overflow=block;blockSpacing=1;whiteSpace=wrap;fontSize=13;spacing=0;verticalAlign=top;strokeColor=#282c33;strokeOpacity=100;fillOpacity=100;rounded=1;absoluteArcSize=1;arcSize=9;fillColor=#ffffff;strokeWidth=1.5;lucidId=OgV1CdLUXp28;" parent="qB2LF_t2OZ2bHveKpeMm-153" vertex="1">
          <mxGeometry y="-15" width="300" height="105" as="geometry" />
        </mxCell>
        <mxCell id="qB2LF_t2OZ2bHveKpeMm-154" value="" style="fillColor=none;strokeColor=none;pointerEvents=0;fontStyle=0;html=1;whiteSpace=wrap;container=1;collapsible=0;childLayout=stackLayout;resizeParent=1;dropTarget=0;fontSize=13;spacing=0;rounded=1;absoluteArcSize=1;arcSize=9;strokeWidth=NaN;" parent="1" vertex="1">
          <mxGeometry x="1425" y="-1350" width="320" height="280" as="geometry" />
        </mxCell>
        <mxCell id="qB2LF_t2OZ2bHveKpeMm-155" value="Pagina" style="swimlane;html=1;whiteSpace=wrap;connectable=0;fontStyle=0;startSize=30;dropTarget=0;rounded=0;spacing=0;strokeWidth=NaN;container=1;pointerEvents=0;collapsible=0;recursiveResize=0;fontSize=16.7;fillColor=#f5f5f5;fontColor=#333333;strokeColor=#666666;" parent="qB2LF_t2OZ2bHveKpeMm-154" vertex="1">
          <mxGeometry width="320" height="280" as="geometry" />
        </mxCell>
        <mxCell id="qB2LF_t2OZ2bHveKpeMm-156" value="" style="html=1;overflow=block;blockSpacing=1;whiteSpace=wrap;container=1;pointerEvents=0;collapsible=0;recursiveResize=0;fontSize=13;spacing=0;strokeColor=#unset;fillOpacity=0;rounded=1;absoluteArcSize=1;arcSize=9;fillColor=#000000;strokeWidth=NaN;lucidId=4jV1_.p0RQY0;" parent="1" vertex="1">
          <mxGeometry x="1425" y="-1170" width="300" height="135" as="geometry" />
        </mxCell>
        <mxCell id="qB2LF_t2OZ2bHveKpeMm-157" value="" style="pointerEvents=0;fontStyle=0;html=1;whiteSpace=wrap;container=1;collapsible=0;childLayout=stackLayout;resizeParent=1;dropTarget=0;fontSize=13;spacing=0;rounded=1;absoluteArcSize=1;arcSize=9;strokeWidth=NaN;fillColor=#f5f5f5;fontColor=#333333;strokeColor=#666666;" parent="1" vertex="1">
          <mxGeometry x="1410" y="-585" width="345" height="205" as="geometry" />
        </mxCell>
        <mxCell id="qB2LF_t2OZ2bHveKpeMm-158" value="PastaDePaginasFavoritas" style="swimlane;html=1;whiteSpace=wrap;connectable=0;fontStyle=0;startSize=30;dropTarget=0;rounded=0;spacing=0;strokeColor=#666666;fillColor=#f5f5f5;strokeWidth=NaN;container=1;pointerEvents=0;collapsible=0;recursiveResize=0;fontSize=16.7;fontColor=#333333;" parent="qB2LF_t2OZ2bHveKpeMm-157" vertex="1">
          <mxGeometry width="345" height="205" as="geometry" />
        </mxCell>
        <mxCell id="qB2LF_t2OZ2bHveKpeMm-159" value="" style="html=1;overflow=block;blockSpacing=1;whiteSpace=wrap;container=1;pointerEvents=0;collapsible=0;recursiveResize=0;fontSize=13;align=left;spacing=0;verticalAlign=middle;strokeColor=#unset;fillOpacity=0;rounded=1;absoluteArcSize=1;arcSize=9;fillColor=#000000;strokeWidth=NaN;lucidId=FlV19NV0voSU;" parent="1" vertex="1">
          <mxGeometry x="1410" y="-465" width="345" height="75" as="geometry" />
        </mxCell>
        <mxCell id="qB2LF_t2OZ2bHveKpeMm-186" value="&lt;div style=&quot;display: flex; justify-content: flex-start; text-align: left; align-items: baseline; font-size: 0; line-height: 1.25;margin-top: -2px;&quot;&gt;&lt;span&gt;&lt;span style=&quot;font-size:16.7px;color:#3a414a;&quot;&gt;+adicionarPagina(pagina: PaginaFavorita)&#xa;&lt;/span&gt;&lt;/span&gt;&lt;/div&gt;&lt;div style=&quot;display: flex; justify-content: flex-start; text-align: left; align-items: baseline; font-size: 0; line-height: 1.25;margin-top: -2px;&quot;&gt;&lt;span&gt;&lt;span style=&quot;font-size:16.7px;color:#3a414a;&quot;&gt;+removerPagina(pagina: PaginaFavorita)&#xa;&lt;/span&gt;&lt;/span&gt;&lt;/div&gt;&lt;div style=&quot;display: flex; justify-content: flex-start; text-align: left; align-items: baseline; font-size: 0; line-height: 1.25;margin-top: -2px;&quot;&gt;&lt;span&gt;&lt;span style=&quot;font-size:16.7px;color:#3a414a;&quot;&gt;+listarPaginas()&lt;/span&gt;&lt;/span&gt;&lt;/div&gt;" style="html=1;overflow=block;blockSpacing=1;whiteSpace=wrap;fontSize=13;spacing=0;verticalAlign=top;strokeColor=#282c33;strokeOpacity=100;fillOpacity=100;rounded=1;absoluteArcSize=1;arcSize=9;fillColor=#ffffff;strokeWidth=1.5;lucidId=xAW1.nGKTyKF;" parent="qB2LF_t2OZ2bHveKpeMm-159" vertex="1">
          <mxGeometry x="10" y="3.75" width="320" height="66.25" as="geometry" />
        </mxCell>
        <mxCell id="qB2LF_t2OZ2bHveKpeMm-160" value="" style="pointerEvents=0;fontStyle=0;html=1;whiteSpace=wrap;container=1;collapsible=0;childLayout=stackLayout;resizeParent=1;dropTarget=0;fontSize=13;spacing=0;rounded=1;absoluteArcSize=1;arcSize=9;strokeWidth=NaN;fillColor=#f5f5f5;fontColor=#333333;strokeColor=#666666;" parent="1" vertex="1">
          <mxGeometry x="1433" y="-286" width="300" height="166" as="geometry" />
        </mxCell>
        <mxCell id="qB2LF_t2OZ2bHveKpeMm-161" value="PaginaFavorita" style="swimlane;html=1;whiteSpace=wrap;connectable=0;fontStyle=0;startSize=30;dropTarget=0;rounded=0;spacing=0;strokeColor=#666666;fillColor=#f5f5f5;strokeWidth=NaN;container=1;pointerEvents=0;collapsible=0;recursiveResize=0;fontSize=16.7;fontColor=#333333;" parent="qB2LF_t2OZ2bHveKpeMm-160" vertex="1">
          <mxGeometry width="300" height="166" as="geometry" />
        </mxCell>
        <mxCell id="qB2LF_t2OZ2bHveKpeMm-162" value="" style="html=1;overflow=block;blockSpacing=1;whiteSpace=wrap;container=1;pointerEvents=0;collapsible=0;recursiveResize=0;fontSize=13;align=left;spacing=0;verticalAlign=middle;strokeColor=#unset;fillOpacity=0;rounded=1;absoluteArcSize=1;arcSize=9;fillColor=#000000;strokeWidth=NaN;lucidId=MBW1b2YE-zjs;" parent="1" vertex="1">
          <mxGeometry x="1433" y="-185" width="300" height="60" as="geometry" />
        </mxCell>
        <mxCell id="qB2LF_t2OZ2bHveKpeMm-163" value="&lt;div style=&quot;display: flex; justify-content: flex-start; text-align: left; align-items: baseline; font-size: 0; line-height: 1.25;margin-top: -2px;&quot;&gt;&lt;span&gt;&lt;span style=&quot;font-size:16.7px;color:#3a414a;&quot;&gt;-musicaAtual : Musica&#xa;&lt;/span&gt;&lt;/span&gt;&lt;/div&gt;&lt;div style=&quot;display: flex; justify-content: flex-start; text-align: left; align-items: baseline; font-size: 0; line-height: 1.25;margin-top: -2px;&quot;&gt;&lt;span&gt;&lt;span style=&quot;font-size:16.7px;color:#3a414a;&quot;&gt;-musicas: List&amp;lt;Musica&amp;gt;&#xa;&lt;/span&gt;&lt;/span&gt;&lt;/div&gt;&lt;div style=&quot;display: flex; justify-content: flex-start; text-align: left; align-items: baseline; font-size: 0; line-height: 1.25;margin-top: -2px;&quot;&gt;&lt;span&gt;&lt;span style=&quot;font-size:16.7px;color:#3a414a;&quot;&gt;-pausado : boolean&lt;/span&gt;&lt;/span&gt;&lt;/div&gt;" style="html=1;overflow=block;blockSpacing=1;whiteSpace=wrap;fontSize=13;spacing=0;verticalAlign=top;strokeColor=#282c33;strokeOpacity=100;fillOpacity=100;rounded=1;absoluteArcSize=1;arcSize=9;fillColor=#ffffff;strokeWidth=1.5;lucidId=VAU1QTn1hG9b;" parent="1" vertex="1">
          <mxGeometry x="-37" y="-570" width="237" height="100" as="geometry" />
        </mxCell>
        <mxCell id="qB2LF_t2OZ2bHveKpeMm-164" value="&lt;div style=&quot;display: flex; justify-content: flex-start; text-align: left; align-items: baseline; font-size: 0; line-height: 1.25;margin-top: -2px;&quot;&gt;&lt;span&gt;&lt;span style=&quot;font-size:16.7px;color:#3a414a;&quot;&gt;+tocarMusica()&#xa;&lt;/span&gt;&lt;/span&gt;&lt;/div&gt;&lt;div style=&quot;display: flex; justify-content: flex-start; text-align: left; align-items: baseline; font-size: 0; line-height: 1.25;margin-top: -2px;&quot;&gt;&lt;span&gt;&lt;span style=&quot;font-size:16.7px;color:#3a414a;&quot;&gt;+pausarMusica()&#xa;&lt;/span&gt;&lt;/span&gt;&lt;/div&gt;&lt;div style=&quot;display: flex; justify-content: flex-start; text-align: left; align-items: baseline; font-size: 0; line-height: 1.25;margin-top: -2px;&quot;&gt;&lt;span&gt;&lt;span style=&quot;font-size:16.7px;color:#3a414a;&quot;&gt;+selecionarMusica()&lt;/span&gt;&lt;/span&gt;&lt;/div&gt;" style="html=1;overflow=block;blockSpacing=1;whiteSpace=wrap;fontSize=13;spacing=0;verticalAlign=top;strokeColor=#282c33;strokeOpacity=100;fillOpacity=100;rounded=1;absoluteArcSize=1;arcSize=9;fillColor=#ffffff;strokeWidth=1.5;lucidId=EGU1_ZEKj8TJ;" parent="1" vertex="1">
          <mxGeometry x="-37" y="-470" width="237" height="90" as="geometry" />
        </mxCell>
        <mxCell id="qB2LF_t2OZ2bHveKpeMm-165" value="&lt;div style=&quot;display: flex; justify-content: flex-start; text-align: left; align-items: baseline; font-size: 0; line-height: 1.25;margin-top: -2px;&quot;&gt;&lt;span&gt;&lt;span style=&quot;font-size:16.7px;color:#3a414a;&quot;&gt;-agenda: List&amp;lt;Contato&amp;gt;&#xa;&lt;/span&gt;&lt;/span&gt;&lt;/div&gt;&lt;div style=&quot;display: flex; justify-content: flex-start; text-align: left; align-items: baseline; font-size: 0; line-height: 1.25;margin-top: -2px;&quot;&gt;&lt;span&gt;&lt;span style=&quot;font-size:16.7px;color:#3a414a;&quot;&gt;-historicoChamadas: List&amp;lt;Chamada&amp;gt;&#xa;&lt;/span&gt;&lt;/span&gt;&lt;/div&gt;&lt;div style=&quot;display: flex; justify-content: flex-start; text-align: left; align-items: baseline; font-size: 0; line-height: 1.25;margin-top: -2px;&quot;&gt;&lt;span&gt;&lt;span style=&quot;font-size:16.7px;color:#3a414a;&quot;&gt;-chamadaListener: ChamadaListener&lt;/span&gt;&lt;/span&gt;&lt;/div&gt;" style="html=1;overflow=block;blockSpacing=1;whiteSpace=wrap;fontSize=13;spacing=0;verticalAlign=top;strokeColor=#282c33;strokeOpacity=100;fillOpacity=100;rounded=1;absoluteArcSize=1;arcSize=9;fillColor=#ffffff;strokeWidth=1.5;lucidId=MIU18rut3e6G;" parent="1" vertex="1">
          <mxGeometry x="321" y="-570" width="299" height="120" as="geometry" />
        </mxCell>
        <mxCell id="qB2LF_t2OZ2bHveKpeMm-166" value="&lt;div style=&quot;display: flex; justify-content: flex-start; text-align: left; align-items: baseline; font-size: 0; line-height: 1.25;margin-top: -2px;&quot;&gt;&lt;span&gt;&lt;span style=&quot;font-size:16.7px;color:#3a414a;&quot;&gt;+ligar(numeroTelefone: Telefone)&#xa;&lt;/span&gt;&lt;/span&gt;&lt;/div&gt;&lt;div style=&quot;display: flex; justify-content: flex-start; text-align: left; align-items: baseline; font-size: 0; line-height: 1.25;margin-top: -2px;&quot;&gt;&lt;span&gt;&lt;span style=&quot;font-size:16.7px;color:#3a414a;&quot;&gt;+atender()&#xa;&lt;/span&gt;&lt;/span&gt;&lt;/div&gt;&lt;div style=&quot;display: flex; justify-content: flex-start; text-align: left; align-items: baseline; font-size: 0; line-height: 1.25;margin-top: -2px;&quot;&gt;&lt;span&gt;&lt;span style=&quot;font-size:16.7px;color:#3a414a;&quot;&gt;+iniciarCorreioVoz()&lt;/span&gt;&lt;/span&gt;&lt;/div&gt;" style="html=1;overflow=block;blockSpacing=1;whiteSpace=wrap;fontSize=13;spacing=0;verticalAlign=top;strokeColor=#282c33;strokeOpacity=100;fillOpacity=100;rounded=1;absoluteArcSize=1;arcSize=9;fillColor=#ffffff;strokeWidth=1.5;lucidId=MIU1JjaJvBf3;" parent="1" vertex="1">
          <mxGeometry x="323" y="-450" width="297" height="70" as="geometry" />
        </mxCell>
        <mxCell id="qB2LF_t2OZ2bHveKpeMm-167" value="&lt;div style=&quot;display: flex; justify-content: flex-start; text-align: left; align-items: baseline; font-size: 0; line-height: 1.25;margin-top: -2px;&quot;&gt;&lt;span&gt;&lt;span style=&quot;font-size:16.7px;color:#3a414a;&quot;&gt;-paginaAtual: Pagina&#xa;&lt;/span&gt;&lt;/span&gt;&lt;/div&gt;&lt;div style=&quot;display: flex; justify-content: flex-start; text-align: left; align-items: baseline; font-size: 0; line-height: 1.25;margin-top: -2px;&quot;&gt;&lt;span&gt;&lt;span style=&quot;font-size:16.7px;color:#3a414a;&quot;&gt;-paginasAbertas: List&amp;lt;Pagina&amp;gt;&#xa;&lt;/span&gt;&lt;/span&gt;&lt;/div&gt;&lt;div style=&quot;display: flex; justify-content: flex-start; text-align: left; align-items: baseline; font-size: 0; line-height: 1.25;margin-top: -2px;&quot;&gt;&lt;span&gt;&lt;span style=&quot;font-size:16.7px;color:#3a414a;&quot;&gt;-favoritos: List&amp;lt;&lt;/span&gt;&lt;span style=&quot;font-size:16.7px;&quot;&gt;PastaDePaginasFavoritas&lt;/span&gt;&lt;span style=&quot;font-size:16.7px;color:#3a414a;&quot;&gt;&amp;gt;&#xa;&lt;/span&gt;&lt;/span&gt;&lt;/div&gt;&lt;div style=&quot;display: flex; justify-content: flex-start; text-align: left; align-items: baseline; font-size: 0; line-height: 1.25;margin-top: -2px;&quot;&gt;&lt;span&gt;&lt;span style=&quot;font-size:16.7px;color:#3a414a;&quot;&gt;-historico: List&amp;lt;PaginaHistorico&amp;gt;&#xa;&lt;/span&gt;&lt;/span&gt;&lt;/div&gt;&lt;div style=&quot;display: flex; justify-content: flex-start; text-align: left; align-items: baseline; font-size: 0; line-height: 1.25;margin-top: -2px;&quot;&gt;&lt;span&gt;&lt;/span&gt;&lt;/div&gt;" style="html=1;overflow=block;blockSpacing=1;whiteSpace=wrap;fontSize=13;spacing=0;verticalAlign=top;strokeColor=#282c33;strokeOpacity=100;fillOpacity=100;rounded=1;absoluteArcSize=1;arcSize=9;fillColor=#ffffff;strokeWidth=1.5;lucidId=nNU1hJHHhpJ5;" parent="1" vertex="1">
          <mxGeometry x="750" y="-560" width="430" height="150" as="geometry" />
        </mxCell>
        <mxCell id="qB2LF_t2OZ2bHveKpeMm-168" value="&lt;div style=&quot;display: flex; justify-content: flex-start; text-align: left; align-items: baseline; font-size: 0; line-height: 1.25;margin-top: -2px;&quot;&gt;&lt;span&gt;&lt;span style=&quot;font-size:16.7px;color:#3a414a;&quot;&gt;+exibirPagina(pagina: Pagina)&#xa;&lt;/span&gt;&lt;/span&gt;&lt;/div&gt;&lt;div style=&quot;display: flex; justify-content: flex-start; text-align: left; align-items: baseline; font-size: 0; line-height: 1.25;margin-top: -2px;&quot;&gt;&lt;span&gt;&lt;span style=&quot;font-size:16.7px;color:#3a414a;&quot;&gt;+adicionarNovaAba(url: string)&#xa;&lt;/span&gt;&lt;/span&gt;&lt;/div&gt;&lt;div style=&quot;display: flex; justify-content: flex-start; text-align: left; align-items: baseline; font-size: 0; line-height: 1.25;margin-top: -2px;&quot;&gt;&lt;span&gt;&lt;span style=&quot;font-size:16.7px;color:#3a414a;&quot;&gt;+adicionarNovaAba(url: URL)&#xa;&lt;/span&gt;&lt;/span&gt;&lt;/div&gt;&lt;div style=&quot;display: flex; justify-content: flex-start; text-align: left; align-items: baseline; font-size: 0; line-height: 1.25;margin-top: -2px;&quot;&gt;&lt;span&gt;&lt;span style=&quot;font-size:16.7px;color:#3a414a;&quot;&gt;+atualizarPaginaAtual()&#xa;&lt;/span&gt;&lt;/span&gt;&lt;/div&gt;&lt;div style=&quot;display: flex; justify-content: flex-start; text-align: left; align-items: baseline; font-size: 0; line-height: 1.25;margin-top: -2px;&quot;&gt;&lt;span&gt;&lt;span style=&quot;font-size:16.7px;color:#3a414a;&quot;&gt;+abrirHistorico()&#xa;&lt;/span&gt;&lt;/span&gt;&lt;/div&gt;&lt;div style=&quot;display: flex; justify-content: flex-start; text-align: left; align-items: baseline; font-size: 0; line-height: 1.25;margin-top: -2px;&quot;&gt;&lt;span&gt;&lt;span style=&quot;font-size:16.7px;color:#3a414a;&quot;&gt;+abrirPastaFavoritos(pasta: PastaDePaginasFavoritas)&lt;/span&gt;&lt;/span&gt;&lt;/div&gt;" style="html=1;overflow=block;blockSpacing=1;whiteSpace=wrap;fontSize=13;spacing=0;verticalAlign=top;strokeColor=#282c33;strokeOpacity=100;fillOpacity=100;rounded=1;absoluteArcSize=1;arcSize=9;fillColor=#ffffff;strokeWidth=1.5;lucidId=nNU1aSBo3Pjs;" parent="1" vertex="1">
          <mxGeometry x="750" y="-400" width="430" height="130" as="geometry" />
        </mxCell>
        <mxCell id="qB2LF_t2OZ2bHveKpeMm-169" value="&lt;div style=&quot;display: flex; justify-content: flex-start; text-align: left; align-items: baseline; font-size: 0; line-height: 1.25;margin-top: -2px;&quot;&gt;&lt;span&gt;&lt;span style=&quot;font-size:16.7px;color:#3a414a;&quot;&gt;#nome: string&#xa;&lt;/span&gt;&lt;/span&gt;&lt;/div&gt;&lt;div style=&quot;display: flex; justify-content: flex-start; text-align: left; align-items: baseline; font-size: 0; line-height: 1.25;margin-top: -2px;&quot;&gt;&lt;span&gt;&lt;span style=&quot;font-size:16.7px;color:#3a414a;&quot;&gt;#artista: string&#xa;&lt;/span&gt;&lt;/span&gt;&lt;/div&gt;&lt;div style=&quot;display: flex; justify-content: flex-start; text-align: left; align-items: baseline; font-size: 0; line-height: 1.25;margin-top: -2px;&quot;&gt;&lt;span&gt;&lt;span style=&quot;font-size:16.7px;color:#3a414a;&quot;&gt;#album: string&#xa;&lt;/span&gt;&lt;/span&gt;&lt;/div&gt;&lt;div style=&quot;display: flex; justify-content: flex-start; text-align: left; align-items: baseline; font-size: 0; line-height: 1.25;margin-top: -2px;&quot;&gt;&lt;span&gt;&lt;span style=&quot;font-size:16.7px;color:#3a414a;&quot;&gt;#tipo: string&#xa;&lt;/span&gt;&lt;/span&gt;&lt;/div&gt;&lt;div style=&quot;display: flex; justify-content: flex-start; text-align: left; align-items: baseline; font-size: 0; line-height: 1.25;margin-top: -2px;&quot;&gt;&lt;span&gt;&lt;span style=&quot;font-size:16.7px;color:#3a414a;&quot;&gt;#lancamento: Date&lt;/span&gt;&lt;/span&gt;&lt;/div&gt;" style="html=1;overflow=block;blockSpacing=1;whiteSpace=wrap;fontSize=13;spacing=0;verticalAlign=top;strokeColor=#282c33;strokeOpacity=100;fillOpacity=100;rounded=1;absoluteArcSize=1;arcSize=9;fillColor=#ffffff;strokeWidth=1.5;lucidId=N1U1ZU6xkpKW;" parent="1" vertex="1">
          <mxGeometry x="-49.28" y="-1028" width="240" height="110" as="geometry" />
        </mxCell>
        <mxCell id="qB2LF_t2OZ2bHveKpeMm-172" value="+streamEstaAtiva()" style="html=1;overflow=block;blockSpacing=1;whiteSpace=wrap;fontSize=16.7;fontColor=#3a414a;align=left;spacing=0;verticalAlign=top;strokeColor=#282c33;strokeOpacity=100;fillOpacity=100;rounded=1;absoluteArcSize=1;arcSize=9;fillColor=#ffffff;strokeWidth=1.5;lucidId=k4U1mHGoGmv-;" parent="1" vertex="1">
          <mxGeometry x="-459.28" y="-928" width="240" height="60" as="geometry" />
        </mxCell>
        <mxCell id="qB2LF_t2OZ2bHveKpeMm-173" value="" style="html=1;jettySize=18;whiteSpace=wrap;overflow=block;blockSpacing=1;fontSize=13;strokeColor=#3a414a;strokeOpacity=100;strokeWidth=0.8;rounded=1;arcSize=12;edgeStyle=orthogonalEdgeStyle;startArrow=none;endArrow=block;endFill=1;exitX=1.003;exitY=0.73;exitPerimeter=0;entryX=-0.003;entryY=0.73;entryPerimeter=0;lucidId=F4U1C2S80OhM;" parent="1" source="qB2LF_t2OZ2bHveKpeMm-171" target="qB2LF_t2OZ2bHveKpeMm-136" edge="1">
          <mxGeometry width="100" height="100" relative="1" as="geometry">
            <Array as="points" />
          </mxGeometry>
        </mxCell>
        <mxCell id="qB2LF_t2OZ2bHveKpeMm-174" value="-arquivo: Arquivo" style="html=1;overflow=block;blockSpacing=1;whiteSpace=wrap;fontSize=16.7;fontColor=#3a414a;align=left;spacing=0;verticalAlign=top;strokeColor=#282c33;strokeOpacity=100;fillOpacity=100;rounded=1;absoluteArcSize=1;arcSize=9;fillColor=#ffffff;strokeWidth=1.5;lucidId=r6U1lvOuh~WA;" parent="1" vertex="1">
          <mxGeometry x="-49.28" y="-1288" width="240" height="60" as="geometry" />
        </mxCell>
        <mxCell id="qB2LF_t2OZ2bHveKpeMm-175" value="+streamEstaAtiva()" style="html=1;overflow=block;blockSpacing=1;whiteSpace=wrap;fontSize=16.7;fontColor=#3a414a;align=left;spacing=0;verticalAlign=top;strokeColor=#282c33;strokeOpacity=100;fillOpacity=100;rounded=1;absoluteArcSize=1;arcSize=9;fillColor=#ffffff;strokeWidth=1.5;lucidId=r6U1FDepDmqJ;" parent="1" vertex="1">
          <mxGeometry x="-49.28" y="-1227" width="240" height="49" as="geometry" />
        </mxCell>
        <mxCell id="qB2LF_t2OZ2bHveKpeMm-176" value="" style="html=1;jettySize=18;whiteSpace=wrap;overflow=block;blockSpacing=1;fontSize=13;strokeColor=#3a414a;strokeOpacity=100;strokeWidth=0.8;rounded=1;arcSize=12;edgeStyle=orthogonalEdgeStyle;startArrow=none;endArrow=block;endFill=1;exitX=0.5;exitY=1;entryX=0.5;entryY=-0.005;entryPerimeter=0;lucidId=E6U15ym5TZNX;exitDx=0;exitDy=0;" parent="1" source="qB2LF_t2OZ2bHveKpeMm-142" target="qB2LF_t2OZ2bHveKpeMm-136" edge="1">
          <mxGeometry width="100" height="100" relative="1" as="geometry">
            <Array as="points" />
          </mxGeometry>
        </mxCell>
        <mxCell id="qB2LF_t2OZ2bHveKpeMm-177" value="&lt;div style=&quot;display: flex; justify-content: flex-start; text-align: left; align-items: baseline; font-size: 0; line-height: 1.25;margin-top: -2px;&quot;&gt;&lt;span&gt;&lt;span style=&quot;font-size:16.7px;color:#3a414a;&quot;&gt;-url: string&#xa;&lt;/span&gt;&lt;/span&gt;&lt;/div&gt;&lt;div style=&quot;display: flex; justify-content: flex-start; text-align: left; align-items: baseline; font-size: 0; line-height: 1.25;margin-top: -2px;&quot;&gt;&lt;span&gt;&lt;span style=&quot;font-size:16.7px;color:#3a414a;&quot;&gt;-titulo: String&#xa;&lt;/span&gt;&lt;/span&gt;&lt;/div&gt;&lt;div style=&quot;display: flex; justify-content: flex-start; text-align: left; align-items: baseline; font-size: 0; line-height: 1.25;margin-top: -2px;&quot;&gt;&lt;span&gt;&lt;span style=&quot;font-size:16.7px;color:#3a414a;&quot;&gt;-dataHoraAcesso: Date&#xa;&lt;/span&gt;&lt;/span&gt;&lt;/div&gt;&lt;div style=&quot;display: flex; justify-content: flex-start; text-align: left; align-items: baseline; font-size: 0; line-height: 1.25;margin-top: -2px;&quot;&gt;&lt;span&gt;&lt;span style=&quot;font-size:16.7px;color:#3a414a;&quot;&gt;-tempoPermanencia: long&#xa;&lt;/span&gt;&lt;/span&gt;&lt;/div&gt;&lt;div style=&quot;display: flex; justify-content: flex-start; text-align: left; align-items: baseline; font-size: 0; line-height: 1.25;margin-top: -2px;&quot;&gt;&lt;span&gt;&lt;span style=&quot;font-size:16.7px;color:#3a414a;&quot;&gt;-miniatura: Imagem&#xa;&lt;/span&gt;&lt;/span&gt;&lt;/div&gt;&lt;div style=&quot;display: flex; justify-content: flex-start; text-align: left; align-items: baseline; font-size: 0; line-height: 1.25;margin-top: -2px;&quot;&gt;&lt;span&gt;&lt;span style=&quot;font-size:16.7px;color:#3a414a;&quot;&gt;-Tags: List&amp;lt;String&amp;gt;&lt;/span&gt;&lt;/span&gt;&lt;/div&gt;" style="html=1;overflow=block;blockSpacing=1;whiteSpace=wrap;fontSize=13;spacing=0;verticalAlign=top;strokeColor=#282c33;strokeOpacity=100;fillOpacity=100;rounded=1;absoluteArcSize=1;arcSize=9;fillColor=#ffffff;strokeWidth=1.5;lucidId=vbV1Dts~A4PP;" parent="1" vertex="1">
          <mxGeometry x="1447.5" y="-920" width="270" height="130" as="geometry" />
        </mxCell>
        <mxCell id="qB2LF_t2OZ2bHveKpeMm-178" value="&lt;div style=&quot;display: flex; justify-content: flex-start; text-align: left; align-items: baseline; font-size: 0; line-height: 1.25;margin-top: -2px;&quot;&gt;&lt;span&gt;&lt;span style=&quot;font-size:16.7px;color:#3a414a;&quot;&gt;+exibirDetalhes()&#xa;&lt;/span&gt;&lt;/span&gt;&lt;/div&gt;&lt;div style=&quot;display: flex; justify-content: flex-start; text-align: left; align-items: baseline; font-size: 0; line-height: 1.25;margin-top: -2px;&quot;&gt;&lt;span&gt;&lt;span style=&quot;font-size:16.7px;color:#3a414a;&quot;&gt;+calcularTempoPermanencia()&#xa;&lt;/span&gt;&lt;/span&gt;&lt;/div&gt;&lt;div style=&quot;display: flex; justify-content: flex-start; text-align: left; align-items: baseline; font-size: 0; line-height: 1.25;margin-top: -2px;&quot;&gt;&lt;span&gt;&lt;span style=&quot;font-size:16.7px;color:#3a414a;&quot;&gt;+gerarMiniatura()&#xa;&lt;/span&gt;&lt;/span&gt;&lt;/div&gt;&lt;div style=&quot;display: flex; justify-content: flex-start; text-align: left; align-items: baseline; font-size: 0; line-height: 1.25;margin-top: -2px;&quot;&gt;&lt;span&gt;&lt;span style=&quot;font-size:16.7px;color:#3a414a;&quot;&gt;+associarTag(tag: string)&#xa;&lt;/span&gt;&lt;/span&gt;&lt;/div&gt;&lt;div style=&quot;display: flex; justify-content: flex-start; text-align: left; align-items: baseline; font-size: 0; line-height: 1.25;margin-top: -2px;&quot;&gt;&lt;span&gt;&lt;span style=&quot;font-size:16.7px;color:#3a414a;&quot;&gt;+removerTag(tag: string)&lt;/span&gt;&lt;/span&gt;&lt;/div&gt;" style="html=1;overflow=block;blockSpacing=1;whiteSpace=wrap;fontSize=13;spacing=0;verticalAlign=top;strokeColor=#282c33;strokeOpacity=100;fillOpacity=100;rounded=1;absoluteArcSize=1;arcSize=9;fillColor=#ffffff;strokeWidth=1.5;lucidId=vbV1Ho_doUxZ;" parent="1" vertex="1">
          <mxGeometry x="1455.5" y="-785" width="254.5" height="95" as="geometry" />
        </mxCell>
        <mxCell id="qB2LF_t2OZ2bHveKpeMm-179" value="&lt;div style=&quot;display: flex; justify-content: flex-start; text-align: left; align-items: baseline; font-size: 0; line-height: 1.25;margin-top: -2px;&quot;&gt;&lt;span&gt;&lt;span style=&quot;font-size:16.7px;color:#3a414a;&quot;&gt;-contato: Contato&#xa;&lt;/span&gt;&lt;/span&gt;&lt;/div&gt;&lt;div style=&quot;display: flex; justify-content: flex-start; text-align: left; align-items: baseline; font-size: 0; line-height: 1.25;margin-top: -2px;&quot;&gt;&lt;span&gt;&lt;span style=&quot;font-size:16.7px;color:#3a414a;&quot;&gt;-duracao: long&#xa;&lt;/span&gt;&lt;/span&gt;&lt;/div&gt;&lt;div style=&quot;display: flex; justify-content: flex-start; text-align: left; align-items: baseline; font-size: 0; line-height: 1.25;margin-top: -2px;&quot;&gt;&lt;span&gt;&lt;span style=&quot;font-size:16.7px;color:#3a414a;&quot;&gt;-localizacao: string&lt;/span&gt;&lt;/span&gt;&lt;/div&gt;" style="html=1;overflow=block;blockSpacing=1;whiteSpace=wrap;fontSize=13;spacing=0;verticalAlign=top;strokeColor=#282c33;strokeOpacity=100;fillOpacity=100;rounded=1;absoluteArcSize=1;arcSize=9;fillColor=#ffffff;strokeWidth=1.5;lucidId=ifV1R5aw-JXL;" parent="1" vertex="1">
          <mxGeometry x="321" y="-935" width="302" height="160" as="geometry" />
        </mxCell>
        <mxCell id="qB2LF_t2OZ2bHveKpeMm-181" value="&lt;div style=&quot;display: flex; justify-content: flex-start; text-align: left; align-items: baseline; font-size: 0; line-height: 1.25;margin-top: -2px;&quot;&gt;&lt;span&gt;&lt;span style=&quot;font-size:16.7px;color:#3a414a;&quot;&gt;-numero: String&lt;br&gt;&lt;/span&gt;&lt;/span&gt;&lt;/div&gt;&lt;div style=&quot;display: flex; justify-content: flex-start; text-align: left; align-items: baseline; font-size: 0; line-height: 1.25;margin-top: -2px;&quot;&gt;&lt;span&gt;&lt;span style=&quot;font-size:16.7px;color:#3a414a;&quot;&gt;-ddd: int&lt;br&gt;&lt;/span&gt;&lt;/span&gt;&lt;/div&gt;&lt;div style=&quot;display: flex; justify-content: flex-start; text-align: left; align-items: baseline; font-size: 0; line-height: 1.25;margin-top: -2px;&quot;&gt;&lt;span&gt;&lt;span style=&quot;font-size:16.7px;color:#3a414a;&quot;&gt;-nome: string&lt;br&gt;&lt;/span&gt;&lt;/span&gt;&lt;/div&gt;&lt;div style=&quot;display: flex; justify-content: flex-start; text-align: left; align-items: baseline; line-height: 1.25; margin-top: -2px;&quot;&gt;&lt;span style=&quot;font-size: 0px;&quot;&gt;&lt;span style=&quot;font-size:16.7px;color:#3a414a;&quot;&gt;-descricao: string&lt;/span&gt;&lt;/span&gt;&lt;font color=&quot;#3a414a&quot;&gt;&lt;span style=&quot;font-size: 16.7px;&quot;&gt;&lt;br&gt;&lt;/span&gt;&lt;/font&gt;&lt;font color=&quot;#3a414a&quot;&gt;&lt;span style=&quot;font-size: 16.7px;&quot;&gt;&lt;br&gt;&lt;/span&gt;&lt;/font&gt;&lt;font color=&quot;#3a414a&quot;&gt;&lt;span style=&quot;font-size: 16.7px;&quot;&gt;&lt;br&gt;&lt;/span&gt;&lt;/font&gt;&lt;font color=&quot;#3a414a&quot;&gt;&lt;span style=&quot;font-size: 16.7px;&quot;&gt;&amp;nbsp;&lt;/span&gt;&lt;/font&gt;&lt;font color=&quot;#3a414a&quot;&gt;&lt;br&gt;&lt;/font&gt;&lt;font color=&quot;#3a414a&quot;&gt;&lt;br&gt;&lt;/font&gt;&lt;font color=&quot;#3a414a&quot;&gt;&lt;br&gt;&lt;/font&gt;&lt;font color=&quot;#3a414a&quot;&gt;&lt;br&gt;&lt;/font&gt;&lt;font color=&quot;#3a414a&quot;&gt;&lt;br&gt;&lt;/font&gt;&lt;font color=&quot;#3a414a&quot;&gt;&lt;br&gt;&lt;/font&gt;&lt;font color=&quot;#3a414a&quot;&gt;&lt;br&gt;&lt;/font&gt;&lt;font color=&quot;#3a414a&quot;&gt;&lt;br&gt;&lt;/font&gt;&lt;span style=&quot;font-size: 0px;&quot;&gt;&lt;span style=&quot;font-size:16.7px;color:#3a414a;&quot;&gt;&lt;br&gt;&lt;/span&gt;&lt;/span&gt;&lt;span style=&quot;font-size: 0px;&quot;&gt;&lt;span style=&quot;font-size:16.7px;color:#3a414a;&quot;&gt;&lt;br&gt;&lt;/span&gt;&lt;/span&gt;&lt;span style=&quot;font-size: 0px;&quot;&gt;&lt;span style=&quot;font-size:16.7px;color:#3a414a;&quot;&gt;&lt;br&gt;&lt;/span&gt;&lt;/span&gt;&lt;span style=&quot;font-size: 0px;&quot;&gt;&lt;br&gt;&lt;/span&gt;&lt;span style=&quot;font-size: 0px;&quot;&gt;&lt;br&gt;&lt;/span&gt;&lt;span style=&quot;font-size: 0px;&quot;&gt;&lt;br&gt;&lt;/span&gt;&lt;/div&gt;" style="html=1;overflow=block;blockSpacing=1;whiteSpace=wrap;fontSize=13;spacing=0;verticalAlign=top;strokeColor=#282c33;strokeOpacity=100;fillOpacity=100;rounded=1;absoluteArcSize=1;arcSize=9;fillColor=#ffffff;strokeWidth=1.5;lucidId=OgV1WIbKW6Za;" parent="1" vertex="1">
          <mxGeometry x="323" y="-1305" width="297" height="125" as="geometry" />
        </mxCell>
        <mxCell id="qB2LF_t2OZ2bHveKpeMm-183" value="&lt;div style=&quot;display: flex; justify-content: flex-start; text-align: left; align-items: baseline; font-size: 0; line-height: 1.25;margin-top: -2px;&quot;&gt;&lt;span&gt;&lt;span style=&quot;font-size:16.7px;color:#3a414a;&quot;&gt;-url: String&#xa;&lt;/span&gt;&lt;/span&gt;&lt;/div&gt;&lt;div style=&quot;display: flex; justify-content: flex-start; text-align: left; align-items: baseline; font-size: 0; line-height: 1.25;margin-top: -2px;&quot;&gt;&lt;span&gt;&lt;span style=&quot;font-size:16.7px;color:#3a414a;&quot;&gt;-estaAberta: boolean&#xa;&lt;/span&gt;&lt;/span&gt;&lt;/div&gt;&lt;div style=&quot;display: flex; justify-content: flex-start; text-align: left; align-items: baseline; font-size: 0; line-height: 1.25;margin-top: -2px;&quot;&gt;&lt;span&gt;&lt;span style=&quot;font-size:16.7px;color:#3a414a;&quot;&gt;-miniatura: Imagem&#xa;&lt;/span&gt;&lt;/span&gt;&lt;/div&gt;&lt;div style=&quot;display: flex; justify-content: flex-start; text-align: left; align-items: baseline; font-size: 0; line-height: 1.25;margin-top: -2px;&quot;&gt;&lt;span&gt;&lt;/span&gt;&lt;/div&gt;" style="html=1;overflow=block;blockSpacing=1;whiteSpace=wrap;fontSize=13;spacing=0;verticalAlign=top;strokeColor=#282c33;strokeOpacity=100;fillOpacity=100;rounded=1;absoluteArcSize=1;arcSize=9;fillColor=#ffffff;strokeWidth=1.5;lucidId=4jV1DoEJEqh6;" parent="1" vertex="1">
          <mxGeometry x="1433" y="-1318" width="295" height="149" as="geometry" />
        </mxCell>
        <mxCell id="qB2LF_t2OZ2bHveKpeMm-185" value="&lt;div style=&quot;display: flex; justify-content: flex-start; text-align: left; align-items: baseline; font-size: 0; line-height: 1.25;margin-top: -2px;&quot;&gt;&lt;span&gt;&lt;span style=&quot;font-size:16.7px;color:#3a414a;&quot;&gt;-nome: string&#xa;&lt;/span&gt;&lt;/span&gt;&lt;/div&gt;&lt;div style=&quot;display: flex; justify-content: flex-start; text-align: left; align-items: baseline; font-size: 0; line-height: 1.25;margin-top: -2px;&quot;&gt;&lt;span&gt;&lt;span style=&quot;font-size:16.7px;color:#3a414a;&quot;&gt;-pagina: List&amp;lt;PaginaFavorita&amp;gt;&lt;/span&gt;&lt;/span&gt;&lt;/div&gt;" style="html=1;overflow=block;blockSpacing=1;whiteSpace=wrap;fontSize=13;spacing=0;verticalAlign=top;strokeColor=#282c33;strokeOpacity=100;fillOpacity=100;rounded=1;absoluteArcSize=1;arcSize=9;fillColor=#ffffff;strokeWidth=1.5;lucidId=FlV1C-UhVuum;" parent="1" vertex="1">
          <mxGeometry x="1420" y="-550" width="320" height="80" as="geometry" />
        </mxCell>
        <mxCell id="qB2LF_t2OZ2bHveKpeMm-187" value="&lt;div style=&quot;display: flex; justify-content: flex-start; text-align: left; align-items: baseline; font-size: 0; line-height: 1.25;margin-top: -2px;&quot;&gt;&lt;span&gt;&lt;span style=&quot;font-size:16.7px;color:#3a414a;&quot;&gt;-url: string&#xa;&lt;/span&gt;&lt;/span&gt;&lt;/div&gt;&lt;div style=&quot;display: flex; justify-content: flex-start; text-align: left; align-items: baseline; font-size: 0; line-height: 1.25;margin-top: -2px;&quot;&gt;&lt;span&gt;&lt;span style=&quot;font-size:16.7px;color:#3a414a;&quot;&gt;-titulo: String&#xa;&lt;/span&gt;&lt;/span&gt;&lt;/div&gt;&lt;div style=&quot;display: flex; justify-content: flex-start; text-align: left; align-items: baseline; font-size: 0; line-height: 1.25;margin-top: -2px;&quot;&gt;&lt;span&gt;&lt;/span&gt;&lt;/div&gt;" style="html=1;overflow=block;blockSpacing=1;whiteSpace=wrap;fontSize=13;spacing=0;verticalAlign=top;strokeColor=#282c33;strokeOpacity=100;fillOpacity=100;rounded=1;absoluteArcSize=1;arcSize=9;fillColor=#ffffff;strokeWidth=1.5;lucidId=MBW1Dp_R-3mO;" parent="1" vertex="1">
          <mxGeometry x="1440" y="-245" width="280" height="55" as="geometry" />
        </mxCell>
        <mxCell id="qB2LF_t2OZ2bHveKpeMm-188" value="&lt;div style=&quot;display: flex; justify-content: flex-start; text-align: left; align-items: baseline; font-size: 0; line-height: 1.25;margin-top: -2px;&quot;&gt;&lt;span&gt;&lt;span style=&quot;font-size:16.7px;color:#3a414a;&quot;&gt;+abrirPagina()&#xa;&lt;/span&gt;&lt;/span&gt;&lt;/div&gt;&lt;div style=&quot;display: flex; justify-content: flex-start; text-align: left; align-items: baseline; font-size: 0; line-height: 1.25;margin-top: -2px;&quot;&gt;&lt;span&gt;&lt;span style=&quot;font-size:16.7px;color:#3a414a;&quot;&gt;+exibirDetalhes()&#xa;&lt;/span&gt;&lt;/span&gt;&lt;/div&gt;&lt;div style=&quot;display: flex; justify-content: flex-start; text-align: left; align-items: baseline; font-size: 0; line-height: 1.25;margin-top: -2px;&quot;&gt;&lt;span&gt;&lt;/span&gt;&lt;/div&gt;" style="html=1;overflow=block;blockSpacing=1;whiteSpace=wrap;fontSize=13;spacing=0;verticalAlign=top;strokeColor=#282c33;strokeOpacity=100;fillOpacity=100;rounded=1;absoluteArcSize=1;arcSize=9;fillColor=#ffffff;strokeWidth=1.5;lucidId=MBW1MW7DcWnf;" parent="1" vertex="1">
          <mxGeometry x="1440" y="-177" width="280" height="47" as="geometry" />
        </mxCell>
        <mxCell id="qB2LF_t2OZ2bHveKpeMm-189" value="" style="html=1;jettySize=18;whiteSpace=wrap;overflow=block;blockSpacing=1;fontSize=13;strokeColor=#3a414a;strokeOpacity=100;strokeWidth=0.8;rounded=1;arcSize=12;edgeStyle=orthogonalEdgeStyle;startArrow=none;endArrow=diamond;endFill=1;endSize=16;exitX=0.5;exitY=1.01;exitPerimeter=0;entryX=0.5;entryY=-0.007;entryPerimeter=0;lucidId=_CW10GVrd80v;" parent="1" source="qB2LF_t2OZ2bHveKpeMm-159" target="qB2LF_t2OZ2bHveKpeMm-160" edge="1">
          <mxGeometry width="100" height="100" relative="1" as="geometry">
            <Array as="points" />
          </mxGeometry>
        </mxCell>
        <mxCell id="qB2LF_t2OZ2bHveKpeMm-190" value="1" style="text;html=1;resizable=0;labelBackgroundColor=default;align=center;verticalAlign=middle;fontStyle=1;fontColor=#333333;fontSize=13.3;" parent="qB2LF_t2OZ2bHveKpeMm-189" vertex="1">
          <mxGeometry x="-0.5474446907135999" relative="1" as="geometry" />
        </mxCell>
        <mxCell id="RoQW8-E2WukJlDeN19rY-2" value="0...*" style="edgeLabel;html=1;align=center;verticalAlign=middle;resizable=0;points=[];" parent="qB2LF_t2OZ2bHveKpeMm-189" vertex="1" connectable="0">
          <mxGeometry x="0.4561" relative="1" as="geometry">
            <mxPoint as="offset" />
          </mxGeometry>
        </mxCell>
        <mxCell id="qB2LF_t2OZ2bHveKpeMm-191" value="" style="html=1;jettySize=18;whiteSpace=wrap;fontSize=13;strokeColor=#3a414a;strokeOpacity=100;strokeWidth=0.8;rounded=1;arcSize=12;edgeStyle=orthogonalEdgeStyle;startArrow=none;endArrow=diamond;endFill=1;endSize=16;exitX=0.5;exitY=1.017;exitPerimeter=0;entryX=0.5;entryY=-0.003;entryPerimeter=0;lucidId=IJW1JWr5ecGW;" parent="1" source="qB2LF_t2OZ2bHveKpeMm-138" target="qB2LF_t2OZ2bHveKpeMm-127" edge="1">
          <mxGeometry width="100" height="100" relative="1" as="geometry">
            <Array as="points">
              <mxPoint x="70" y="-760" />
              <mxPoint x="83" y="-760" />
            </Array>
          </mxGeometry>
        </mxCell>
        <mxCell id="qB2LF_t2OZ2bHveKpeMm-192" value="0...*" style="text;html=1;resizable=0;labelBackgroundColor=default;align=center;verticalAlign=middle;fontStyle=1;fontColor=#333333;fontSize=13.3;" parent="qB2LF_t2OZ2bHveKpeMm-191" vertex="1">
          <mxGeometry x="-0.9004906228570242" relative="1" as="geometry" />
        </mxCell>
        <mxCell id="qB2LF_t2OZ2bHveKpeMm-209" value="1" style="edgeLabel;html=1;align=center;verticalAlign=middle;resizable=0;points=[];" parent="qB2LF_t2OZ2bHveKpeMm-191" vertex="1" connectable="0">
          <mxGeometry x="0.8331" y="-3" relative="1" as="geometry">
            <mxPoint as="offset" />
          </mxGeometry>
        </mxCell>
        <mxCell id="qB2LF_t2OZ2bHveKpeMm-193" value="" style="html=1;jettySize=18;whiteSpace=wrap;fontSize=13;strokeColor=#3a414a;strokeOpacity=100;strokeWidth=0.8;rounded=1;arcSize=12;edgeStyle=orthogonalEdgeStyle;startArrow=none;endArrow=diamond;endFill=1;endSize=16;exitX=0.5;exitY=1;entryX=0.5;entryY=-0.006;entryPerimeter=0;lucidId=gLW15HQ~Ip_1;exitDx=0;exitDy=0;" parent="1" source="qB2LF_t2OZ2bHveKpeMm-182" target="qB2LF_t2OZ2bHveKpeMm-148" edge="1">
          <mxGeometry width="100" height="100" relative="1" as="geometry">
            <Array as="points" />
          </mxGeometry>
        </mxCell>
        <mxCell id="qB2LF_t2OZ2bHveKpeMm-194" value="1" style="text;html=1;resizable=0;labelBackgroundColor=default;align=center;verticalAlign=middle;fontStyle=1;fontColor=#333333;fontSize=13.3;" parent="qB2LF_t2OZ2bHveKpeMm-193" vertex="1">
          <mxGeometry x="0.36521762103720534" relative="1" as="geometry" />
        </mxCell>
        <mxCell id="qB2LF_t2OZ2bHveKpeMm-206" value="1" style="edgeLabel;html=1;align=center;verticalAlign=middle;resizable=0;points=[];" parent="qB2LF_t2OZ2bHveKpeMm-193" vertex="1" connectable="0">
          <mxGeometry x="-0.6271" y="-4" relative="1" as="geometry">
            <mxPoint as="offset" />
          </mxGeometry>
        </mxCell>
        <mxCell id="qB2LF_t2OZ2bHveKpeMm-196" value="" style="html=1;jettySize=18;whiteSpace=wrap;fontSize=13;strokeColor=#3a414a;strokeOpacity=100;strokeWidth=0.8;rounded=1;arcSize=12;edgeStyle=orthogonalEdgeStyle;startArrow=diamond;startFill=1;startSize=16;endArrow=none;exitX=0.5;exitY=-0.003;exitPerimeter=0;lucidId=3LW1wcVrPrux;" parent="1" source="qB2LF_t2OZ2bHveKpeMm-130" edge="1">
          <mxGeometry width="100" height="100" relative="1" as="geometry">
            <Array as="points" />
            <mxPoint x="456" y="-690" as="targetPoint" />
          </mxGeometry>
        </mxCell>
        <mxCell id="qB2LF_t2OZ2bHveKpeMm-197" value="0...*" style="text;html=1;resizable=0;labelBackgroundColor=default;align=center;verticalAlign=middle;fontStyle=1;fontColor=#333333;fontSize=13.3;" parent="qB2LF_t2OZ2bHveKpeMm-196" vertex="1">
          <mxGeometry x="0.6917492607839542" relative="1" as="geometry" />
        </mxCell>
        <mxCell id="qB2LF_t2OZ2bHveKpeMm-210" value="1" style="edgeLabel;html=1;align=center;verticalAlign=middle;resizable=0;points=[];" parent="qB2LF_t2OZ2bHveKpeMm-196" vertex="1" connectable="0">
          <mxGeometry x="-0.3525" y="-1" relative="1" as="geometry">
            <mxPoint as="offset" />
          </mxGeometry>
        </mxCell>
        <mxCell id="qB2LF_t2OZ2bHveKpeMm-198" value="" style="html=1;jettySize=18;whiteSpace=wrap;fontSize=13;strokeColor=#3a414a;strokeOpacity=100;strokeWidth=0.8;rounded=1;arcSize=12;edgeStyle=orthogonalEdgeStyle;startArrow=none;endArrow=diamond;endFill=1;endSize=16;exitX=-0.002;exitY=0.5;exitPerimeter=0;entryX=1.002;entryY=0.33;entryPerimeter=0;lucidId=LMW1nHplM1Z-;" parent="1" source="qB2LF_t2OZ2bHveKpeMm-157" target="qB2LF_t2OZ2bHveKpeMm-133" edge="1">
          <mxGeometry width="100" height="100" relative="1" as="geometry">
            <Array as="points" />
          </mxGeometry>
        </mxCell>
        <mxCell id="qB2LF_t2OZ2bHveKpeMm-199" value="0...*" style="text;html=1;resizable=0;labelBackgroundColor=default;align=center;verticalAlign=middle;fontStyle=1;fontColor=#333333;fontSize=13.3;" parent="qB2LF_t2OZ2bHveKpeMm-198" vertex="1">
          <mxGeometry x="-0.5736791144273848" relative="1" as="geometry" />
        </mxCell>
        <mxCell id="qB2LF_t2OZ2bHveKpeMm-214" value="1" style="edgeLabel;html=1;align=center;verticalAlign=middle;resizable=0;points=[];" parent="qB2LF_t2OZ2bHveKpeMm-198" vertex="1" connectable="0">
          <mxGeometry x="0.6185" y="1" relative="1" as="geometry">
            <mxPoint as="offset" />
          </mxGeometry>
        </mxCell>
        <mxCell id="qB2LF_t2OZ2bHveKpeMm-200" value="" style="html=1;jettySize=18;whiteSpace=wrap;fontSize=13;strokeColor=#3a414a;strokeOpacity=100;strokeWidth=0.8;rounded=1;arcSize=12;edgeStyle=orthogonalEdgeStyle;startArrow=none;endArrow=diamond;endFill=1;endSize=16;exitX=-0.002;exitY=0.5;exitPerimeter=0;entryX=0.254;entryY=-0.003;entryPerimeter=0;lucidId=dNW1r5o-csIg;" parent="1" source="qB2LF_t2OZ2bHveKpeMm-154" target="qB2LF_t2OZ2bHveKpeMm-133" edge="1">
          <mxGeometry width="100" height="100" relative="1" as="geometry">
            <Array as="points" />
          </mxGeometry>
        </mxCell>
        <mxCell id="qB2LF_t2OZ2bHveKpeMm-201" value="1..*" style="text;html=1;resizable=0;labelBackgroundColor=default;align=center;verticalAlign=middle;fontStyle=1;fontColor=#333333;fontSize=13.3;" parent="qB2LF_t2OZ2bHveKpeMm-200" vertex="1">
          <mxGeometry x="-0.8522752576066542" relative="1" as="geometry" />
        </mxCell>
        <mxCell id="qB2LF_t2OZ2bHveKpeMm-212" value="1" style="edgeLabel;html=1;align=center;verticalAlign=middle;resizable=0;points=[];" parent="qB2LF_t2OZ2bHveKpeMm-200" vertex="1" connectable="0">
          <mxGeometry x="0.8997" y="-6" relative="1" as="geometry">
            <mxPoint as="offset" />
          </mxGeometry>
        </mxCell>
        <mxCell id="qB2LF_t2OZ2bHveKpeMm-202" value="" style="html=1;jettySize=18;whiteSpace=wrap;fontSize=13;strokeColor=#3a414a;strokeOpacity=100;strokeWidth=0.8;rounded=1;arcSize=12;edgeStyle=orthogonalEdgeStyle;startArrow=none;endArrow=diamond;endFill=1;endSize=16;exitX=-0.002;exitY=0.5;exitPerimeter=0;entryX=0.647;entryY=-0.003;entryPerimeter=0;lucidId=WNW18.-5poHG;" parent="1" target="qB2LF_t2OZ2bHveKpeMm-133" edge="1">
          <mxGeometry width="100" height="100" relative="1" as="geometry">
            <Array as="points" />
            <mxPoint x="1424.3999999999996" y="-905.625" as="sourcePoint" />
          </mxGeometry>
        </mxCell>
        <mxCell id="qB2LF_t2OZ2bHveKpeMm-203" value="1..*" style="text;html=1;resizable=0;labelBackgroundColor=default;align=center;verticalAlign=middle;fontStyle=1;fontColor=#333333;fontSize=13.3;" parent="qB2LF_t2OZ2bHveKpeMm-202" vertex="1">
          <mxGeometry x="-0.8344370860927153" relative="1" as="geometry" />
        </mxCell>
        <mxCell id="qB2LF_t2OZ2bHveKpeMm-211" value="1" style="edgeLabel;html=1;align=center;verticalAlign=middle;resizable=0;points=[];" parent="qB2LF_t2OZ2bHveKpeMm-202" vertex="1" connectable="0">
          <mxGeometry x="0.8877" y="-6" relative="1" as="geometry">
            <mxPoint as="offset" />
          </mxGeometry>
        </mxCell>
        <mxCell id="qB2LF_t2OZ2bHveKpeMm-204" value="" style="html=1;jettySize=18;whiteSpace=wrap;fontSize=13;strokeColor=#3a414a;strokeOpacity=100;strokeWidth=0.8;rounded=1;arcSize=12;edgeStyle=orthogonalEdgeStyle;startArrow=none;endArrow=none;exitX=1.003;exitY=0.5;exitPerimeter=0;entryX=-0.003;entryY=0.5;entryPerimeter=0;lucidId=8Kc2dgcI8UpJ;" parent="1" source="qB2LF_t2OZ2bHveKpeMm-127" target="qB2LF_t2OZ2bHveKpeMm-130" edge="1">
          <mxGeometry width="100" height="100" relative="1" as="geometry">
            <Array as="points" />
          </mxGeometry>
        </mxCell>
        <mxCell id="qB2LF_t2OZ2bHveKpeMm-146" value="PaginaHistorico" style="swimlane;html=1;whiteSpace=wrap;connectable=0;fontStyle=0;startSize=30;dropTarget=0;rounded=0;spacing=0;strokeColor=#666666;fillColor=#f5f5f5;strokeWidth=NaN;container=1;pointerEvents=0;collapsible=0;recursiveResize=0;fontSize=16.7;fontColor=#333333;" parent="1" vertex="1">
          <mxGeometry x="1440" y="-960" width="290" height="280" as="geometry" />
        </mxCell>
        <mxCell id="qB2LF_t2OZ2bHveKpeMm-205" value="" style="html=1;jettySize=18;whiteSpace=wrap;overflow=block;blockSpacing=1;fontSize=13;strokeColor=#3a414a;strokeOpacity=100;strokeWidth=0.8;rounded=1;arcSize=12;edgeStyle=orthogonalEdgeStyle;startArrow=none;endArrow=block;endFill=1;exitX=1.003;exitY=0.73;exitPerimeter=0;entryX=-0.003;entryY=0.73;entryPerimeter=0;lucidId=F4U1C2S80OhM;" parent="1" source="qB2LF_t2OZ2bHveKpeMm-139" target="qB2LF_t2OZ2bHveKpeMm-171" edge="1">
          <mxGeometry width="100" height="100" relative="1" as="geometry">
            <Array as="points">
              <mxPoint x="-339.28" y="-953" />
            </Array>
            <mxPoint x="-218.27999999999997" y="-917" as="sourcePoint" />
            <mxPoint x="-51.28" y="-954" as="targetPoint" />
          </mxGeometry>
        </mxCell>
        <mxCell id="qB2LF_t2OZ2bHveKpeMm-171" value="-streamURL: URL" style="html=1;overflow=block;blockSpacing=1;whiteSpace=wrap;fontSize=16.7;fontColor=#3a414a;align=left;spacing=0;verticalAlign=top;strokeColor=#282c33;strokeOpacity=100;fillOpacity=100;rounded=1;absoluteArcSize=1;arcSize=9;fillColor=#ffffff;strokeWidth=1.5;lucidId=k4U1K7.SU0Tz;" parent="1" vertex="1">
          <mxGeometry x="-459.28" y="-1028" width="240" height="100" as="geometry" />
        </mxCell>
        <mxCell id="qB2LF_t2OZ2bHveKpeMm-208" value="&lt;div style=&quot;display: flex; justify-content: flex-start; text-align: left; align-items: baseline; font-size: 0; line-height: 1.25;margin-top: -2px;&quot;&gt;&lt;span&gt;&lt;span style=&quot;font-size:16.7px;color:#3a414a;&quot;&gt;+ligarNovamente()&#xa;&lt;/span&gt;&lt;/span&gt;&lt;/div&gt;&lt;div style=&quot;display: flex; justify-content: flex-start; text-align: left; align-items: baseline; font-size: 0; line-height: 1.25;margin-top: -2px;&quot;&gt;&lt;span&gt;&lt;span style=&quot;font-size:16.7px;color:#3a414a;&quot;&gt;+exibirDetalhes()&lt;/span&gt;&lt;/span&gt;&lt;/div&gt;" style="html=1;overflow=block;blockSpacing=1;whiteSpace=wrap;fontSize=13;spacing=0;verticalAlign=top;strokeColor=#282c33;strokeOpacity=100;fillOpacity=100;rounded=1;absoluteArcSize=1;arcSize=9;fillColor=#ffffff;strokeWidth=1.5;lucidId=ifV1K70aP7mI;" parent="1" vertex="1">
          <mxGeometry x="323" y="-780" width="297" height="80" as="geometry" />
        </mxCell>
        <mxCell id="qB2LF_t2OZ2bHveKpeMm-184" value="&lt;div style=&quot;display: flex; justify-content: flex-start; text-align: left; align-items: baseline; font-size: 0; line-height: 1.25;margin-top: -2px;&quot;&gt;&lt;span&gt;&lt;span style=&quot;font-size:16.7px;color:#3a414a;&quot;&gt;+exibirDetalhesTooltip()&#xa;&lt;/span&gt;&lt;/span&gt;&lt;/div&gt;&lt;div style=&quot;display: flex; justify-content: flex-start; text-align: left; align-items: baseline; font-size: 0; line-height: 1.25;margin-top: -2px;&quot;&gt;&lt;span&gt;&lt;span style=&quot;font-size:16.7px;color:#3a414a;&quot;&gt;+calcularUsoMedioDeMemoria()&lt;/span&gt;&lt;/span&gt;&lt;/div&gt;" style="html=1;overflow=block;blockSpacing=1;whiteSpace=wrap;fontSize=13;spacing=0;verticalAlign=top;strokeColor=#282c33;strokeOpacity=100;fillOpacity=100;rounded=1;absoluteArcSize=1;arcSize=9;fillColor=#ffffff;strokeWidth=1.5;lucidId=4jV1PCphpL..;" parent="1" vertex="1">
          <mxGeometry x="1435" y="-1157.5" width="300" height="80" as="geometry" />
        </mxCell>
        <mxCell id="qB2LF_t2OZ2bHveKpeMm-213" style="edgeStyle=orthogonalEdgeStyle;rounded=0;orthogonalLoop=1;jettySize=auto;html=1;entryX=0;entryY=0.322;entryDx=0;entryDy=0;entryPerimeter=0;endArrow=none;endFill=0;" parent="1" source="qB2LF_t2OZ2bHveKpeMm-165" target="qB2LF_t2OZ2bHveKpeMm-133" edge="1">
          <mxGeometry relative="1" as="geometry" />
        </mxCell>
        <mxCell id="HrpjDmKepIfHfZX2SY-a-3" value="&lt;span style=&quot;color: rgb(58, 65, 74); font-size: 16.7px; text-align: left;&quot;&gt;-icone : Imagem&lt;/span&gt;" style="whiteSpace=wrap;html=1;strokeColor=none;" vertex="1" parent="1">
          <mxGeometry x="323" y="-1227" width="130" height="20" as="geometry" />
        </mxCell>
      </root>
    </mxGraphModel>
  </diagram>
</mxfile>
